<svg xmlns="http://www.w3.org/2000/svg" width="204.425" height="53.667" viewBox="0 0 204.425 53.667">
  <g id="Group_13" data-name="Group 13" transform="translate(-469.176 -11.585)">
    <path id="Path_22" data-name="Path 22" d="M498.144,25.86a6.877,6.877,0,0,0,3.655.94,6.245,6.245,0,0,0,2.242-.363,3.58,3.58,0,0,0,1.578-1.166l.117,1.2h2.411V18.552h-6.624v2.664h3.762v.06a2.548,2.548,0,0,1-.843,2.027,3.518,3.518,0,0,1-2.39.734,3.561,3.561,0,0,1-2.8-1.166,4.954,4.954,0,0,1-1.039-3.4,4.664,4.664,0,0,1,1.069-3.313,3.7,3.7,0,0,1,2.831-1.135,4.691,4.691,0,0,1,1.968.412,9.107,9.107,0,0,1,2.108,1.449l2-2.077a9.458,9.458,0,0,0-2.852-2,8.279,8.279,0,0,0-3.223-.587,7.454,7.454,0,0,0-3.812.94,6.282,6.282,0,0,0-2.468,2.6,8.036,8.036,0,0,0-.853,3.734,8.453,8.453,0,0,0,.814,3.773A6.154,6.154,0,0,0,498.144,25.86Z" transform="translate(27.363 0.676)" fill="#300d2f"/>
    <path id="Path_23" data-name="Path 23" d="M505.9,24.713a3.241,3.241,0,0,0,2.959-1.411v1.08h2.685V14.19H508.6v6.017a1.985,1.985,0,0,1-.48,1.459,1.84,1.84,0,0,1-1.362.48,1.351,1.351,0,0,1-1.51-1.547V14.19h-2.938v7.193a3.3,3.3,0,0,0,.882,2.458A3.707,3.707,0,0,0,505.9,24.713Z" transform="translate(35.139 2.763)" fill="#300d2f"/>
    <path id="Path_24" data-name="Path 24" d="M509.689,24.188a4.223,4.223,0,0,0,2.32.657A3.637,3.637,0,0,0,515.2,23.3v1.236h2.724V14.341h-2.938v.921a3.717,3.717,0,0,0-2.959-1.214,4.257,4.257,0,0,0-2.341.655,4.394,4.394,0,0,0-1.607,1.881,6.67,6.67,0,0,0-.579,2.87,6.611,6.611,0,0,0,.579,2.852A4.382,4.382,0,0,0,509.689,24.188Zm1.42-6.828a2.078,2.078,0,0,1,1.685-.783,2.047,2.047,0,0,1,1.636.783,3.165,3.165,0,0,1,.655,2.1,3.243,3.243,0,0,1-.645,2.1,2.159,2.159,0,0,1-3.352.01,3.3,3.3,0,0,1-.626-2.108A3.2,3.2,0,0,1,511.109,17.359Z" transform="translate(40.644 2.612)" fill="#300d2f"/>
    <path id="Path_25" data-name="Path 25" d="M516.228,15.731V14.28H513.5V24.471h2.938V19.65a3.359,3.359,0,0,1,.569-2.067,1.834,1.834,0,0,1,1.547-.754,6.255,6.255,0,0,1,1.333.214l.548-2.586a5.663,5.663,0,0,0-1.665-.352A2.691,2.691,0,0,0,516.228,15.731Z" transform="translate(47.008 2.672)" fill="#300d2f"/>
    <path id="Path_26" data-name="Path 26" d="M524.44,15.262a3.714,3.714,0,0,0-2.959-1.214,4.267,4.267,0,0,0-2.341.655,4.393,4.393,0,0,0-1.607,1.881,6.669,6.669,0,0,0-.577,2.87,6.61,6.61,0,0,0,.577,2.852,4.381,4.381,0,0,0,1.607,1.881,4.23,4.23,0,0,0,2.322.657,3.641,3.641,0,0,0,3.194-1.549v1.236h2.724V14.341h-2.94Zm-.548,6.291a2.157,2.157,0,0,1-3.35.01,3.3,3.3,0,0,1-.626-2.108,3.194,3.194,0,0,1,.645-2.1,2.081,2.081,0,0,1,1.685-.783,2.045,2.045,0,0,1,1.636.783,3.154,3.154,0,0,1,.657,2.1A3.244,3.244,0,0,1,523.892,21.552Z" transform="translate(50.669 2.612)" fill="#300d2f"/>
    <path id="Path_27" data-name="Path 27" d="M528.7,14.019a3.887,3.887,0,0,0-1.772.391,3.342,3.342,0,0,0-1.245,1.059v-1.1h-2.724V24.562h2.94V18.468a1.927,1.927,0,0,1,.488-1.391,1.737,1.737,0,0,1,1.313-.509,1.627,1.627,0,0,1,1.265.48,1.942,1.942,0,0,1,.441,1.36v6.155h2.938V17.586a3.527,3.527,0,0,0-.96-2.6A3.6,3.6,0,0,0,528.7,14.019Z" transform="translate(57.032 2.581)" fill="#300d2f"/>
    <path id="Path_28" data-name="Path 28" d="M533.651,23.6a1.122,1.122,0,0,1-.717-.2.887.887,0,0,1-.243-.725v-4.76h2.291v-2.2h-2.291V12.745h-2.94v2.977h-1.782v2.2h1.782v5.289a3.089,3.089,0,0,0,.7,2.254,3.252,3.252,0,0,0,2.353.7,8.19,8.19,0,0,0,2.33-.373l-.332-2.351A5.755,5.755,0,0,1,533.651,23.6Z" transform="translate(62.347 1.23)" fill="#300d2f"/>
    <path id="Path_29" data-name="Path 29" d="M541.815,19.172a5.386,5.386,0,0,0-1.255-3.791,4.661,4.661,0,0,0-3.6-1.362,5.317,5.317,0,0,0-2.794.715,4.689,4.689,0,0,0-1.8,1.96,6.268,6.268,0,0,0-.616,2.813,5.832,5.832,0,0,0,.666,2.841,4.634,4.634,0,0,0,1.9,1.881,6.023,6.023,0,0,0,2.9.666,6.409,6.409,0,0,0,2.4-.441,6.916,6.916,0,0,0,2.2-1.5l-1.607-1.842a7.166,7.166,0,0,1-1.469,1,3.389,3.389,0,0,1-1.451.295,2.766,2.766,0,0,1-1.8-.56,2.625,2.625,0,0,1-.9-1.537h7.191C541.8,20.023,541.815,19.644,541.815,19.172Zm-7.172-.921a2.769,2.769,0,0,1,.785-1.409,2.1,2.1,0,0,1,1.488-.53,2.034,2.034,0,0,1,1.471.509,2.247,2.247,0,0,1,.626,1.43Z" transform="translate(66.35 2.581)" fill="#300d2f"/>
    <path id="Path_30" data-name="Path 30" d="M547.244,19.172a5.387,5.387,0,0,0-1.255-3.791,4.663,4.663,0,0,0-3.606-1.362,5.31,5.31,0,0,0-2.792.715,4.689,4.689,0,0,0-1.8,1.96,6.268,6.268,0,0,0-.616,2.813,5.832,5.832,0,0,0,.666,2.841,4.634,4.634,0,0,0,1.9,1.881,6.023,6.023,0,0,0,2.9.666,6.417,6.417,0,0,0,2.4-.441,6.914,6.914,0,0,0,2.2-1.5l-1.607-1.842a7.166,7.166,0,0,1-1.469,1,3.389,3.389,0,0,1-1.451.295,2.765,2.765,0,0,1-1.8-.56,2.625,2.625,0,0,1-.9-1.537h7.191C547.23,20.023,547.244,19.644,547.244,19.172Zm-7.172-.921a2.769,2.769,0,0,1,.785-1.409,2.093,2.093,0,0,1,1.488-.53,2.034,2.034,0,0,1,1.471.509,2.247,2.247,0,0,1,.626,1.43Z" transform="translate(72.108 2.581)" fill="#300d2f"/>
    <path id="Path_31" data-name="Path 31" d="M550.106,12.384v4.642a3.714,3.714,0,0,0-2.959-1.214,4.266,4.266,0,0,0-2.341.655,4.394,4.394,0,0,0-1.607,1.881,6.671,6.671,0,0,0-.577,2.87,6.612,6.612,0,0,0,.577,2.852,4.382,4.382,0,0,0,1.607,1.881,4.23,4.23,0,0,0,2.322.657,3.639,3.639,0,0,0,3.194-1.549V26.3h2.724V12.384Zm-.548,10.933a2.156,2.156,0,0,1-3.35.01,3.3,3.3,0,0,1-.626-2.108,3.2,3.2,0,0,1,.645-2.1,2.081,2.081,0,0,1,1.686-.783,2.045,2.045,0,0,1,1.636.783,3.154,3.154,0,0,1,.657,2.1A3.243,3.243,0,0,1,549.557,23.317Z" transform="translate(77.887 0.847)" fill="#300d2f"/>
    <g id="Group_10" data-name="Group 10" transform="translate(522.033 20.167)">
      <path id="Path_32" data-name="Path 32" d="M494.98,15.75" transform="translate(-494.669 -15.75)" fill="#300d2f"/>
      <path id="Path_33" data-name="Path 33" d="M503.176,31.775H497.6l-1.139,3.173h-1.632L499.335,22.5h2.122l4.525,12.449h-1.667Zm-.474-1.368-.577-1.63q-1.283-3.56-1.753-5.069-.281.949-.729,2.236t-.622,1.815l-.369,1.034-.577,1.613Z" transform="translate(-494.829 -8.593)" fill="#300d2f"/>
      <path id="Path_34" data-name="Path 34" d="M502.439,34.948h-1.508V22.5h1.508Z" transform="translate(-488.358 -8.593)" fill="#300d2f"/>
      <path id="Path_35" data-name="Path 35" d="M504.319,34.948h-1.508V22.5h1.508Z" transform="translate(-486.364 -8.593)" fill="#300d2f"/>
      <path id="Path_36" data-name="Path 36" d="M511.75,34.33a5.145,5.145,0,0,1-1.772.3,1.9,1.9,0,0,1-2.225-2.157V26.982h-1.613V25.843h1.613V22.95h1.506v2.893h2.332v1.139h-2.332V32.3a1.142,1.142,0,0,0,.237.816,1.082,1.082,0,0,0,.781.237,4.907,4.907,0,0,0,1.245-.212Z" transform="translate(-482.835 -8.115)" fill="#300d2f"/>
      <path id="Path_37" data-name="Path 37" d="M515.614,24.814a4.006,4.006,0,0,1,1.517,1.613,5.443,5.443,0,0,1,0,4.735,4.033,4.033,0,0,1-1.517,1.613,4.263,4.263,0,0,1-2.219.577,4.21,4.21,0,0,1-2.209-.577,4.04,4.04,0,0,1-1.508-1.613,5.424,5.424,0,0,1,0-4.735,4.014,4.014,0,0,1,1.508-1.613,4.211,4.211,0,0,1,2.209-.579A4.265,4.265,0,0,1,515.614,24.814Zm-4.2,1.595a3.676,3.676,0,0,0-.738,2.386,3.67,3.67,0,0,0,.738,2.384,2.412,2.412,0,0,0,1.98.913,2.44,2.44,0,0,0,1.991-.913,3.651,3.651,0,0,0,.746-2.384,3.657,3.657,0,0,0-.746-2.386,2.439,2.439,0,0,0-1.991-.911A2.41,2.41,0,0,0,511.415,26.409Z" transform="translate(-479.659 -6.752)" fill="#300d2f"/>
      <path id="Path_38" data-name="Path 38" d="M521.974,24.48v8.436a3.344,3.344,0,0,1-1.061,2.629,4.118,4.118,0,0,1-2.85.948,6.628,6.628,0,0,1-3.911-1.28l.754-1.106a10.157,10.157,0,0,0,1.613.834,4.228,4.228,0,0,0,1.525.272,2.6,2.6,0,0,0,1.764-.589,2.3,2.3,0,0,0,.674-1.832V31.6a3.036,3.036,0,0,1-2.753,1.4,3.5,3.5,0,0,1-1.964-.56,3.774,3.774,0,0,1-1.341-1.562,5.544,5.544,0,0,1,0-4.523,3.768,3.768,0,0,1,1.341-1.56,3.505,3.505,0,0,1,1.964-.563,3.061,3.061,0,0,1,2.841,1.508V24.48Zm-2.157,6.375a3.446,3.446,0,0,0,.7-2.236,3.442,3.442,0,0,0-.7-2.236,2.255,2.255,0,0,0-1.842-.87,2.185,2.185,0,0,0-1.824.859,3.577,3.577,0,0,0-.666,2.246,3.566,3.566,0,0,0,.666,2.244,2.185,2.185,0,0,0,1.824.859A2.253,2.253,0,0,0,519.816,30.855Z" transform="translate(-474.56 -6.752)" fill="#300d2f"/>
      <path id="Path_39" data-name="Path 39" d="M526.714,31.564a6.147,6.147,0,0,1-1.8,1.387,4.638,4.638,0,0,1-1.972.4,4.409,4.409,0,0,1-2.262-.56,3.743,3.743,0,0,1-1.482-1.578,5.165,5.165,0,0,1-.517-2.367,5.38,5.38,0,0,1,.509-2.392,3.892,3.892,0,0,1,1.438-1.632,3.977,3.977,0,0,1,2.174-.587,3.7,3.7,0,0,1,2.866,1.115,4.312,4.312,0,0,1,1.026,3.041,6.224,6.224,0,0,1-.035.666h-6.488a3.651,3.651,0,0,0,.773,2.176,2.452,2.452,0,0,0,2.015.859,2.939,2.939,0,0,0,1.4-.317,7.31,7.31,0,0,0,1.457-1.121Zm-5.648-5.471a3.127,3.127,0,0,0-.841,1.842h4.98a2.752,2.752,0,0,0-.684-1.815,2.264,2.264,0,0,0-1.737-.676A2.371,2.371,0,0,0,521.066,26.094Z" transform="translate(-469.534 -6.752)" fill="#300d2f"/>
      <path id="Path_40" data-name="Path 40" d="M528.592,34.33a5.144,5.144,0,0,1-1.772.3,1.9,1.9,0,0,1-2.227-2.157V26.982h-1.613V25.843h1.613V22.95H526.1v2.893h2.332v1.139H526.1V32.3a1.142,1.142,0,0,0,.237.816,1.082,1.082,0,0,0,.781.237,4.92,4.92,0,0,0,1.245-.212Z" transform="translate(-464.977 -8.115)" fill="#300d2f"/>
      <path id="Path_41" data-name="Path 41" d="M532.81,26.919a2.958,2.958,0,0,1,.8,2.12v5.909H532.1V29.513a2.3,2.3,0,0,0-.507-1.605,1.91,1.91,0,0,0-1.473-.552,2.2,2.2,0,0,0-2.227,2.246v5.347h-1.508V22.5h1.508v4.8a2.614,2.614,0,0,1,1.1-.921,3.7,3.7,0,0,1,1.527-.307A3,3,0,0,1,532.81,26.919Z" transform="translate(-461.367 -8.593)" fill="#300d2f"/>
      <path id="Path_42" data-name="Path 42" d="M538.755,31.564a6.139,6.139,0,0,1-1.8,1.387,4.647,4.647,0,0,1-1.974.4,4.4,4.4,0,0,1-2.26-.56,3.747,3.747,0,0,1-1.484-1.578,5.165,5.165,0,0,1-.517-2.367,5.411,5.411,0,0,1,.509-2.392,3.907,3.907,0,0,1,1.438-1.632,3.982,3.982,0,0,1,2.174-.587,3.7,3.7,0,0,1,2.868,1.115,4.322,4.322,0,0,1,1.024,3.041,5.672,5.672,0,0,1-.035.666h-6.486a3.639,3.639,0,0,0,.771,2.176,2.454,2.454,0,0,0,2.017.859,2.939,2.939,0,0,0,1.4-.317,7.322,7.322,0,0,0,1.455-1.121Zm-5.646-5.471a3.117,3.117,0,0,0-.843,1.842h4.98a2.75,2.75,0,0,0-.684-1.815,2.262,2.262,0,0,0-1.735-.676A2.365,2.365,0,0,0,533.109,26.094Z" transform="translate(-456.765 -6.752)" fill="#300d2f"/>
      <path id="Path_43" data-name="Path 43" d="M540.409,24.557l-.282,1.263a4.215,4.215,0,0,0-1.121-.175,1.747,1.747,0,0,0-1.455.736,3.249,3.249,0,0,0-.563,2.017v4.628H535.48V24.4H536.9v1.317a2.451,2.451,0,0,1,.849-1.026,2.237,2.237,0,0,1,1.29-.377A4.382,4.382,0,0,1,540.409,24.557Z" transform="translate(-451.72 -6.67)" fill="#300d2f"/>
      <path id="Path_44" data-name="Path 44" d="M546.713,26.663a3.8,3.8,0,0,1,1.349,1.6,5.526,5.526,0,0,1,.482,2.376,5.468,5.468,0,0,1-.49,2.376,3.833,3.833,0,0,1-1.36,1.595,3.475,3.475,0,0,1-1.955.571,3.158,3.158,0,0,1-2.944-1.543v1.315h-1.422V22.5h1.508v5.034a3.213,3.213,0,0,1,2.858-1.438A3.521,3.521,0,0,1,546.713,26.663Zm-.4,6.321A3.765,3.765,0,0,0,547,30.636a3.8,3.8,0,0,0-.684-2.367,2.163,2.163,0,0,0-1.8-.894,2.428,2.428,0,0,0-1.939.876,3.569,3.569,0,0,0-.744,2.386,3.529,3.529,0,0,0,.744,2.376,2.434,2.434,0,0,0,1.939.867A2.158,2.158,0,0,0,546.317,32.985Z" transform="translate(-446.531 -8.593)" fill="#300d2f"/>
      <path id="Path_45" data-name="Path 45" d="M553.026,31.564a6.147,6.147,0,0,1-1.8,1.387,4.645,4.645,0,0,1-1.972.4,4.409,4.409,0,0,1-2.263-.56,3.741,3.741,0,0,1-1.481-1.578,5.164,5.164,0,0,1-.517-2.367,5.378,5.378,0,0,1,.509-2.392,3.891,3.891,0,0,1,1.438-1.632,3.977,3.977,0,0,1,2.174-.587,3.7,3.7,0,0,1,2.866,1.115,4.313,4.313,0,0,1,1.026,3.041,6.192,6.192,0,0,1-.035.666h-6.488a3.653,3.653,0,0,0,.773,2.176,2.452,2.452,0,0,0,2.015.859,2.938,2.938,0,0,0,1.4-.317,7.315,7.315,0,0,0,1.457-1.121Zm-5.648-5.471a3.116,3.116,0,0,0-.841,1.842h4.98a2.751,2.751,0,0,0-.684-1.815,2.264,2.264,0,0,0-1.737-.676A2.371,2.371,0,0,0,547.378,26.094Z" transform="translate(-441.631 -6.752)" fill="#300d2f"/>
      <path id="Path_46" data-name="Path 46" d="M554.9,34.33a5.145,5.145,0,0,1-1.772.3,1.9,1.9,0,0,1-2.227-2.157V26.982h-1.611V25.843H550.9V22.95h1.508v2.893h2.332v1.139h-2.332V32.3a1.141,1.141,0,0,0,.237.816,1.082,1.082,0,0,0,.781.237,4.92,4.92,0,0,0,1.245-.212Z" transform="translate(-437.073 -8.115)" fill="#300d2f"/>
      <path id="Path_47" data-name="Path 47" d="M557.908,34.33a5.151,5.151,0,0,1-1.772.3,1.9,1.9,0,0,1-2.227-2.157V26.982h-1.613V25.843h1.613V22.95h1.508v2.893h2.332v1.139h-2.332V32.3a1.142,1.142,0,0,0,.237.816,1.083,1.083,0,0,0,.781.237,4.922,4.922,0,0,0,1.245-.212Z" transform="translate(-433.888 -8.115)" fill="#300d2f"/>
      <path id="Path_48" data-name="Path 48" d="M563.321,31.564a6.139,6.139,0,0,1-1.8,1.387,4.644,4.644,0,0,1-1.972.4,4.409,4.409,0,0,1-2.262-.56,3.741,3.741,0,0,1-1.481-1.578,5.138,5.138,0,0,1-.517-2.367,5.379,5.379,0,0,1,.509-2.392,3.9,3.9,0,0,1,1.436-1.632,3.99,3.99,0,0,1,2.176-.587,3.7,3.7,0,0,1,2.866,1.115,4.313,4.313,0,0,1,1.026,3.041,6.208,6.208,0,0,1-.035.666h-6.489a3.654,3.654,0,0,0,.773,2.176,2.449,2.449,0,0,0,2.015.859,2.938,2.938,0,0,0,1.4-.317,7.253,7.253,0,0,0,1.455-1.121Zm-5.646-5.471a3.1,3.1,0,0,0-.841,1.842h4.978a2.75,2.75,0,0,0-.682-1.815,2.271,2.271,0,0,0-1.737-.676A2.371,2.371,0,0,0,557.675,26.094Z" transform="translate(-430.711 -6.752)" fill="#300d2f"/>
      <path id="Path_49" data-name="Path 49" d="M564.975,24.557l-.28,1.263a4.229,4.229,0,0,0-1.123-.175,1.749,1.749,0,0,0-1.455.736,3.249,3.249,0,0,0-.56,2.017v4.628h-1.508V24.4h1.42v1.317a2.455,2.455,0,0,1,.851-1.026,2.229,2.229,0,0,1,1.288-.377A4.362,4.362,0,0,1,564.975,24.557Z" transform="translate(-425.667 -6.67)" fill="#300d2f"/>
    </g>
    <g id="Group_11" data-name="Group 11" transform="translate(469.176 11.585)">
      <path id="Path_50" data-name="Path 50" d="M477.838,33.527a12.342,12.342,0,0,0,5.7,3.251h13.354V57.925H483.533V36.778c-9.594,0-14.357,4.729-14.357,11.872,0,10.065,10.061,16.6,21.1,16.6,11.063,0,22.77-8.666,22.77-25.074V11.585H487.172C475.749,11.585,469.73,25.479,477.838,33.527Zm20.592-8.71a8.219,8.219,0,1,1-8.219-8.219A8.22,8.22,0,0,1,498.43,24.817Z" transform="translate(-469.176 -11.585)" fill="#300d2f"/>
    </g>
    <g id="Group_12" data-name="Group 12" transform="translate(635.686 12.435)">
      <rect id="Rectangle_6" data-name="Rectangle 6" width="3.174" height="13.912" transform="translate(0 0.796)" fill="#300d2f"/>
      <path id="Path_51" data-name="Path 51" d="M555.4,15.731V14.28h-2.724V24.471h2.938V19.65a3.359,3.359,0,0,1,.569-2.067,1.834,1.834,0,0,1,1.547-.754,6.237,6.237,0,0,1,1.333.214l.548-2.586a5.663,5.663,0,0,0-1.665-.352A2.691,2.691,0,0,0,555.4,15.731Z" transform="translate(-547.134 -9.762)" fill="#300d2f"/>
      <rect id="Rectangle_7" data-name="Rectangle 7" width="2.939" height="10.189" transform="translate(13.5 4.519)" fill="#300d2f"/>
      <path id="Path_52" data-name="Path 52" d="M566.4,18.919a12.173,12.173,0,0,0-2.322-.725c-.5-.105-.925-.2-1.284-.295a2.211,2.211,0,0,1-.734-.284.49.49,0,0,1-.2-.42.652.652,0,0,1,.4-.587,2.307,2.307,0,0,1,1.088-.216,4.5,4.5,0,0,1,1.5.245,5.536,5.536,0,0,1,1.537.911l1.547-1.881a6.392,6.392,0,0,0-4.506-1.646,5.5,5.5,0,0,0-2.341.462,3.544,3.544,0,0,0-1.508,1.245,3.02,3.02,0,0,0-.519,1.7,2.368,2.368,0,0,0,1.5,2.38,10.69,10.69,0,0,0,2.262.736l.608.138a7.183,7.183,0,0,1,1.372.371.6.6,0,0,1,.391.589.715.715,0,0,1-.431.645,2.282,2.282,0,0,1-1.1.237A4.5,4.5,0,0,1,562,22.23a7.579,7.579,0,0,1-1.821-1.156l-1.667,1.861a7.675,7.675,0,0,0,2.411,1.519,7.582,7.582,0,0,0,2.646.441,6,6,0,0,0,2.419-.441,3.5,3.5,0,0,0,1.539-1.214,3.04,3.04,0,0,0,.53-1.753,2.789,2.789,0,0,0-.4-1.568A2.88,2.88,0,0,0,566.4,18.919Z" transform="translate(-540.953 -9.854)" fill="#300d2f"/>
      <path id="Path_53" data-name="Path 53" d="M569.574,15.753a3.564,3.564,0,0,0-2.8,1.2V12.384h-2.938V26.3h2.938V20.241a1.974,1.974,0,0,1,.5-1.411,1.707,1.707,0,0,1,1.3-.527,1.612,1.612,0,0,1,1.263.488,2.008,2.008,0,0,1,.441,1.391V26.3h2.94V19.32a3.535,3.535,0,0,0-.96-2.6A3.608,3.608,0,0,0,569.574,15.753Z" transform="translate(-535.305 -11.588)" fill="#300d2f"/>
      <circle id="Ellipse_1" data-name="Ellipse 1" cx="1.621" cy="1.621" r="1.621" transform="translate(13.348)" fill="#300d2f"/>
    </g>
  </g>
</svg>
