<?xml version="1.0" encoding="utf-8"?>
<svg viewBox="0 0 400 133" height="133px" width="400px" id="svg2" version="1.1" preserveAspectRatio="xMinYMin" xmlns="http://www.w3.org/2000/svg">
  <defs id="defs6">
    <clipPath id="clipPath18" clipPathUnits="userSpaceOnUse">
      <path id="path16" d="M 0,153.609 H 354.075 V 0 H 0 Z"/>
    </clipPath>
  </defs>
  <g transform="matrix(1.333333, 0, 0, -1.333333, -36.050652, 168.760925)" id="g10">
    <g id="g12">
      <g clip-path="url(#clipPath18)" id="g14">
        <g transform="translate(131.5113,98.8431)" id="g20">
          <path id="path22" style="fill:#292929;fill-opacity:1;fill-rule:nonzero;stroke:none" d="m 0,0 c 1.901,-1.163 4.161,-1.745 6.777,-1.745 1.599,0 2.986,0.224 4.161,0.673 1.175,0.448 2.15,1.168 2.926,2.162 l 0.218,-2.217 h 4.469 V 13.555 H 6.269 V 8.612 h 6.977 V 8.503 C 13.246,6.904 12.725,5.651 11.683,4.742 10.642,3.833 9.164,3.379 7.25,3.379 5.07,3.379 3.337,4.1 2.053,5.542 0.769,6.983 0.127,9.085 0.127,11.847 c 0,2.689 0.66,4.736 1.981,6.141 1.32,1.405 3.07,2.108 5.251,2.108 1.308,0 2.525,-0.254 3.652,-0.763 1.126,-0.509 2.428,-1.405 3.906,-2.689 l 3.708,3.852 c -1.794,1.744 -3.556,2.98 -5.288,3.707 -1.733,0.726 -3.725,1.09 -5.978,1.09 -2.713,0 -5.069,-0.582 -7.068,-1.745 -1.999,-1.162 -3.525,-2.768 -4.579,-4.815 -1.054,-2.047 -1.581,-4.355 -1.581,-6.923 0,-2.616 0.503,-4.948 1.508,-6.996 C -3.356,2.767 -1.902,1.163 0,0"/>
        </g>
        <g transform="translate(160.3101,97.0985)" id="g24">
          <path id="path26" style="fill:#292929;fill-opacity:1;fill-rule:nonzero;stroke:none" d="M 0,0 C 2.544,0 4.373,0.872 5.488,2.617 V 0.618 h 4.978 V 19.515 H 5.015 V 8.358 C 5.015,7.146 4.718,6.245 4.125,5.651 3.531,5.057 2.689,4.761 1.599,4.761 c -1.866,0 -2.798,0.956 -2.798,2.87 V 19.515 H -6.65 V 6.178 c 0,-1.963 0.545,-3.483 1.635,-4.561 C -3.925,0.54 -2.253,0 0,0"/>
        </g>
        <g transform="translate(180.1875,111.0169)" id="g28">
          <path id="path30" style="fill:#292929;fill-opacity:1;fill-rule:nonzero;stroke:none" d="M 0,0 C 0.8,0.969 1.841,1.454 3.126,1.454 4.337,1.454 5.349,0.969 6.16,0 c 0.812,-0.969 1.218,-2.266 1.218,-3.888 0,-1.6 -0.4,-2.896 -1.199,-3.889 -0.8,-0.994 -1.83,-1.49 -3.09,-1.49 -1.308,0 -2.35,0.491 -3.125,1.472 -0.776,0.981 -1.162,2.283 -1.162,3.907 0,1.622 0.399,2.919 1.198,3.888 m -2.634,-12.665 c 1.272,-0.811 2.707,-1.217 4.307,-1.217 2.616,0 4.59,0.957 5.923,2.871 v -2.29 h 5.051 V 5.597 H 7.196 V 3.888 C 5.888,5.391 4.059,6.142 1.708,6.142 0.085,6.142 -1.362,5.736 -2.634,4.924 -3.906,4.112 -4.9,2.949 -5.614,1.435 c -0.715,-1.514 -1.072,-3.288 -1.072,-5.323 0,-2.012 0.357,-3.774 1.072,-5.288 0.714,-1.514 1.708,-2.678 2.98,-3.489"/>
        </g>
        <g transform="translate(201.4834,113.9241)" id="g32">
          <path id="path34" style="fill:#292929;fill-opacity:1;fill-rule:nonzero;stroke:none" d="m 0,0 v 2.689 h -5.051 v -18.897 h 5.45 v 8.94 c 0,1.623 0.351,2.901 1.054,3.834 0.703,0.932 1.659,1.399 2.871,1.399 0.558,0 1.381,-0.133 2.471,-0.4 L 7.813,2.362 C 6.505,2.798 5.475,3.016 4.725,3.016 2.592,3.016 1.018,2.011 0,0"/>
        </g>
        <g transform="translate(222.4883,103.2401)" id="g36">
          <path id="path38" style="fill:#292929;fill-opacity:1;fill-rule:nonzero;stroke:none" d="m 0,0 c -0.8,-0.994 -1.83,-1.49 -3.09,-1.49 -1.307,0 -2.349,0.49 -3.125,1.472 -0.775,0.981 -1.163,2.283 -1.163,3.907 0,1.622 0.4,2.919 1.199,3.888 0.8,0.969 1.841,1.453 3.125,1.453 1.212,0 2.224,-0.484 3.035,-1.453 C 0.793,6.808 1.198,5.511 1.198,3.889 1.198,2.289 0.799,0.993 0,0 m 1.018,11.665 c -1.309,1.502 -3.138,2.253 -5.489,2.253 -1.623,0 -3.07,-0.405 -4.342,-1.217 -1.272,-0.812 -2.265,-1.975 -2.98,-3.489 -0.715,-1.514 -1.072,-3.288 -1.072,-5.323 0,-2.012 0.357,-3.774 1.072,-5.288 0.715,-1.515 1.708,-2.678 2.98,-3.489 1.272,-0.811 2.708,-1.217 4.306,-1.217 2.616,0 4.591,0.957 5.924,2.871 v -2.29 h 5.051 v 18.898 h -5.45 z"/>
        </g>
        <g transform="translate(243.2012,117.2674)" id="g40">
          <path id="path42" style="fill:#292929;fill-opacity:1;fill-rule:nonzero;stroke:none" d="m 0,0 c -1.235,0 -2.332,-0.243 -3.288,-0.727 -0.958,-0.484 -1.727,-1.139 -2.308,-1.962 v 2.035 h -5.051 v -18.897 h 5.451 v 11.302 c 0,1.09 0.302,1.95 0.908,2.58 0.605,0.63 1.418,0.945 2.435,0.945 1.017,0 1.799,-0.297 2.344,-0.891 C 1.036,-6.208 1.309,-7.05 1.309,-8.14 V -19.551 H 6.76 v 12.937 c 0,2.011 -0.595,3.616 -1.781,4.815 C 3.792,-0.6 2.132,0 0,0"/>
        </g>
        <g transform="translate(262.2442,102.0047)" id="g44">
          <path id="path46" style="fill:#292929;fill-opacity:1;fill-rule:nonzero;stroke:none" d="M 0,0 C -0.582,0 -1.023,0.121 -1.326,0.363 -1.63,0.605 -1.78,1.054 -1.78,1.708 v 8.831 h 4.252 v 4.07 H -1.78 v 5.524 h -5.451 v -5.524 h -3.307 v -4.07 h 3.307 V 0.727 c 0,-1.914 0.435,-3.308 1.307,-4.18 0.872,-0.872 2.326,-1.308 4.362,-1.308 1.332,0 2.773,0.23 4.324,0.691 L 2.144,0.291 C 1.247,0.096 0.532,0 0,0"/>
        </g>
        <g transform="translate(271.5108,109.4178)" id="g48">
          <path id="path50" style="fill:#292929;fill-opacity:1;fill-rule:nonzero;stroke:none" d="M 0,0 C 0.266,1.09 0.751,1.963 1.453,2.617 2.155,3.271 3.076,3.598 4.215,3.598 5.378,3.598 6.286,3.283 6.94,2.653 7.595,2.023 7.982,1.139 8.104,0 Z M 13.3,-1.708 C 13.3,1.296 12.524,3.64 10.975,5.324 9.424,7.008 7.195,7.85 4.288,7.85 2.302,7.85 0.575,7.408 -0.891,6.523 -2.356,5.639 -3.471,4.427 -4.234,2.889 -4.997,1.35 -5.379,-0.388 -5.379,-2.326 c 0,-2.011 0.412,-3.767 1.236,-5.269 0.824,-1.502 1.998,-2.666 3.525,-3.488 1.526,-0.824 3.319,-1.236 5.379,-1.236 1.598,0 3.082,0.272 4.451,0.818 1.368,0.544 2.731,1.471 4.088,2.779 l -2.98,3.416 C 9.278,-6.178 8.37,-6.795 7.595,-7.159 6.819,-7.522 5.923,-7.704 4.906,-7.704 c -1.381,0 -2.496,0.345 -3.344,1.036 -0.848,0.69 -1.405,1.641 -1.671,2.852 h 13.337 c 0.047,0.533 0.072,1.236 0.072,2.108"/>
        </g>
        <g transform="translate(292.2598,109.4178)" id="g52">
          <path id="path54" style="fill:#292929;fill-opacity:1;fill-rule:nonzero;stroke:none" d="M 0,0 C 0.267,1.09 0.751,1.963 1.454,2.617 2.156,3.271 3.077,3.598 4.216,3.598 5.379,3.598 6.287,3.283 6.941,2.653 7.596,2.023 7.982,1.139 8.104,0 Z m 13.301,-1.708 c 0,3.004 -0.776,5.348 -2.325,7.032 C 9.425,7.008 7.196,7.85 4.289,7.85 2.302,7.85 0.576,7.408 -0.89,6.523 -2.355,5.639 -3.47,4.427 -4.233,2.889 -4.996,1.35 -5.378,-0.388 -5.378,-2.326 c 0,-2.011 0.412,-3.767 1.235,-5.269 0.825,-1.502 1.999,-2.666 3.526,-3.488 1.526,-0.824 3.319,-1.236 5.378,-1.236 1.598,0 3.083,0.272 4.452,0.818 1.368,0.544 2.73,1.471 4.088,2.779 l -2.98,3.416 C 9.279,-6.178 8.371,-6.795 7.596,-7.159 6.82,-7.522 5.924,-7.704 4.906,-7.704 c -1.381,0 -2.495,0.345 -3.343,1.036 -0.848,0.69 -1.406,1.641 -1.671,2.852 h 13.337 c 0.047,0.533 0.072,1.236 0.072,2.108"/>
        </g>
        <g transform="translate(320.5684,103.2401)" id="g56">
          <path id="path58" style="fill:#292929;fill-opacity:1;fill-rule:nonzero;stroke:none" d="m 0,0 c -0.8,-0.994 -1.829,-1.49 -3.089,-1.49 -1.307,0 -2.349,0.49 -3.125,1.472 -0.775,0.981 -1.163,2.283 -1.163,3.907 0,1.622 0.4,2.919 1.199,3.888 0.8,0.969 1.841,1.453 3.125,1.453 1.212,0 2.223,-0.484 3.035,-1.453 C 0.794,6.808 1.199,5.511 1.199,3.889 1.199,2.289 0.8,0.993 0,0 m 1.019,20.278 v -8.613 c -1.309,1.502 -3.138,2.253 -5.489,2.253 -1.623,0 -3.07,-0.405 -4.342,-1.217 -1.272,-0.812 -2.265,-1.975 -2.98,-3.489 -0.715,-1.514 -1.071,-3.288 -1.071,-5.323 0,-2.012 0.356,-3.774 1.071,-5.288 0.715,-1.515 1.708,-2.678 2.98,-3.489 1.272,-0.811 2.708,-1.217 4.306,-1.217 2.617,0 4.591,0.957 5.924,2.871 v -2.29 H 6.47 v 25.802 z"/>
        </g>
        <path id="path60" style="fill:#292929;fill-opacity:1;fill-rule:nonzero;stroke:none" d="m 128.606,61.773 h 5.887 v 25.802 h -5.887 z"/>
        <g transform="translate(143.9414,77.9808)" id="g62">
          <path id="path64" style="fill:#292929;fill-opacity:1;fill-rule:nonzero;stroke:none" d="M 0,0 V 2.689 H -5.051 V -16.208 H 0.4 v 8.94 c 0,1.623 0.351,2.901 1.054,3.834 0.702,0.933 1.659,1.399 2.87,1.399 0.558,0 1.382,-0.133 2.472,-0.4 L 7.813,2.362 C 6.505,2.798 5.475,3.017 4.725,3.017 2.592,3.017 1.018,2.011 0,0"/>
        </g>
        <path id="path66" style="fill:#292929;fill-opacity:1;fill-rule:nonzero;stroke:none" d="m 153.645,61.773 h 5.451 V 80.67 h -5.451 z"/>
        <g transform="translate(175.7935,72.2391)" id="g68">
          <path id="path70" style="fill:#292929;fill-opacity:1;fill-rule:nonzero;stroke:none" d="m 0,0 c -1.054,0.484 -2.489,0.933 -4.306,1.345 -0.921,0.193 -1.715,0.375 -2.381,0.545 -0.666,0.169 -1.12,0.345 -1.362,0.527 -0.243,0.181 -0.364,0.441 -0.364,0.781 0,0.46 0.249,0.823 0.746,1.09 0.496,0.266 1.168,0.4 2.017,0.4 0.992,0 1.919,-0.151 2.779,-0.454 0.86,-0.304 1.811,-0.867 2.853,-1.69 L 2.853,6.033 C 1.521,7.147 0.206,7.934 -1.09,8.395 c -1.296,0.459 -2.768,0.69 -4.415,0.69 -1.672,0 -3.12,-0.285 -4.343,-0.854 -1.224,-0.569 -2.156,-1.339 -2.798,-2.308 -0.642,-0.968 -0.963,-2.023 -0.963,-3.161 0,-1.042 0.212,-1.914 0.636,-2.616 0.423,-0.704 1.139,-1.303 2.144,-1.799 1.005,-0.497 2.404,-0.951 4.197,-1.363 l 1.127,-0.255 c 1.211,-0.242 2.058,-0.472 2.544,-0.69 0.483,-0.218 0.726,-0.581 0.726,-1.091 0,-0.508 -0.266,-0.908 -0.799,-1.198 -0.533,-0.291 -1.212,-0.437 -2.035,-0.437 -1.139,0 -2.169,0.182 -3.089,0.545 -0.921,0.364 -2.048,1.079 -3.38,2.144 l -3.088,-3.452 c 1.501,-1.333 2.991,-2.271 4.469,-2.816 1.477,-0.545 3.113,-0.818 4.906,-0.818 1.744,0 3.24,0.273 4.488,0.818 1.247,0.545 2.199,1.296 2.853,2.253 0.654,0.956 0.981,2.041 0.981,3.252 0,1.187 -0.249,2.157 -0.745,2.908 C 1.829,-1.103 1.054,-0.485 0,0"/>
        </g>
        <g transform="translate(192.1651,81.3241)" id="g72">
          <path id="path74" style="fill:#292929;fill-opacity:1;fill-rule:nonzero;stroke:none" d="m 0,0 c -2.156,0 -3.889,-0.739 -5.197,-2.216 v 8.467 h -5.45 v -25.802 h 5.45 v 11.229 c 0,1.091 0.309,1.963 0.926,2.616 0.619,0.655 1.424,0.982 2.417,0.982 1.018,0 1.799,-0.303 2.344,-0.909 0.545,-0.605 0.818,-1.466 0.818,-2.579 v -11.339 h 5.451 v 12.937 c 0,2.011 -0.594,3.616 -1.78,4.815 C 3.791,-0.6 2.131,0 0,0"/>
        </g>
        <g transform="translate(159.3775,86.0438)" id="g76">
          <path id="path78" style="fill:#292929;fill-opacity:1;fill-rule:nonzero;stroke:none" d="m 0,0 c 0,-1.661 -1.347,-3.007 -3.007,-3.007 -1.661,0 -3.008,1.346 -3.008,3.007 0,1.661 1.347,3.007 3.008,3.007 C -1.347,3.007 0,1.661 0,0"/>
        </g>
        <g transform="translate(81.294,102.0277)" id="g80">
          <path id="path82" style="fill:#292929;fill-opacity:1;fill-rule:nonzero;stroke:none" d="m 0,0 c 0,-8.419 -6.825,-15.245 -15.245,-15.245 -8.419,0 -15.244,6.826 -15.244,15.245 0,8.419 6.825,15.245 15.244,15.245 C -6.825,15.245 0,8.419 0,0 m -38.192,-16.151 c 2.91,-2.889 6.525,-5.022 10.565,-6.031 l 24.765,-0.001 v -39.218 h -24.765 v 39.218 c -17.795,0 -26.629,-8.768 -26.629,-22.018 0,-18.667 18.658,-30.789 39.133,-30.789 20.518,0 42.233,16.071 42.233,46.504 v 53.029 h -47.989 c -21.188,0 -32.351,-25.768 -17.313,-40.694"/>
        </g>
      </g>
    </g>
  </g>
</svg>
