<svg xmlns="http://www.w3.org/2000/svg" width="287.896" height="46.707" viewBox="0 0 287.896 46.707">
  <g id="Group_8" data-name="Group 8" transform="translate(-6.915 -4.591)">
    <g id="Group_6" data-name="Group 6" transform="translate(6.915 4.591)">
      <path id="Path_2" data-name="Path 2" d="M47.767,40.563v-22.4l-19.4-11.2-19.4,11.2v22.4l19.4,11.2Z" transform="translate(-8.146 -6.012)" fill="#76187e"/>
      <path id="Path_3" data-name="Path 3" d="M27.14,4.591,6.915,16.268V39.621L27.14,51.3,47.365,39.621V16.268Zm0,44.792L8.573,38.664V17.225l6.021-3.476V38.272h1.817V35.132A9.044,9.044,0,0,0,23.43,38.52a8.42,8.42,0,0,0,6.226-2.612,8.4,8.4,0,0,0,2.561-5.515h2.106V45.236Zm9-20.807V25.014a3.852,3.852,0,0,1,1.236-2.662,3.4,3.4,0,0,1,2.31-1.112V19.424a5.064,5.064,0,0,0-3.6,1.657,5.649,5.649,0,0,0-1.764,3.952v3.544H32.148V28.57h-1.82a7.447,7.447,0,0,1,.105,1.147A7.017,7.017,0,0,1,23.4,36.738a7.034,7.034,0,0,1-4.974-11.993,7.025,7.025,0,0,1,9.948,0,7.038,7.038,0,0,1,1.412,2.025h1.963a8.555,8.555,0,0,0-2.089-3.332,8.459,8.459,0,0,0-6.226-2.591,9.075,9.075,0,0,0-7.019,3.367V12.7L27.14,6.506,45.707,17.225V38.664l-9.567,5.523V30.393h3.545V28.577Z" transform="translate(-6.915 -4.591)" fill="#fff"/>
    </g>
    <g id="Group_7" data-name="Group 7" transform="translate(56.527 14.766)">
      <path id="Path_4" data-name="Path 4" d="M145.205,50.034a7.575,7.575,0,0,1-7.52,7.535,7.716,7.716,0,0,1-5.986-2.888v2.677h-1.55V35.731h1.55v9.64a7.743,7.743,0,0,1,5.986-2.872,7.549,7.549,0,0,1,7.52,7.535Zm-1.549.03A5.983,5.983,0,1,0,141.9,54.3,5.78,5.78,0,0,0,143.656,50.064Z" transform="translate(-130.15 -33.369)" fill="#1a1818"/>
      <path id="Path_5" data-name="Path 5" d="M181.307,52.542a7.346,7.346,0,0,1,2.932.6,7.515,7.515,0,0,1,4,4,7.349,7.349,0,0,1,.6,2.933v.12H175.4a5.587,5.587,0,0,0,.5,2.256,5.926,5.926,0,0,0,1.279,1.85,5.813,5.813,0,0,0,1.865,1.233,5.676,5.676,0,0,0,2.271.466,5.792,5.792,0,0,0,3.114-.887,5.935,5.935,0,0,0,2.135-2.316l1.474.646a7.394,7.394,0,0,1-2.722,2.993,7.3,7.3,0,0,1-4,1.158,7.472,7.472,0,0,1-2.918-.587,7.437,7.437,0,0,1-4.016-4.016,7.519,7.519,0,0,1,1.61-8.242,7.6,7.6,0,0,1,2.406-1.609A7.31,7.31,0,0,1,181.307,52.542Zm5.73,6.046a5.918,5.918,0,0,0-5.73-4.437,5.7,5.7,0,0,0-3.64,1.263,5.873,5.873,0,0,0-2.091,3.174Z" transform="translate(-156.219 -43.413)" fill="#1a1818"/>
      <path id="Path_6" data-name="Path 6" d="M224.942,67.6a7.519,7.519,0,0,1-5.31-12.844,7.209,7.209,0,0,1,5.31-2.211,7.532,7.532,0,0,1,5.986,2.872V52.737h1.548V67.4h-1.548V64.724A7.448,7.448,0,0,1,224.942,67.6Zm0-13.521a5.979,5.979,0,1,0,0,11.957,5.979,5.979,0,1,0,0-11.957Z" transform="translate(-182.287 -43.413)" fill="#1a1818"/>
      <path id="Path_7" data-name="Path 7" d="M265.578,52.989h1.549v8.919a4.422,4.422,0,1,0,8.843,0V52.989h1.549v14.68h-1.549V66a6.019,6.019,0,0,1-4.421,1.88,6.008,6.008,0,0,1-5.971-5.971Z" transform="translate(-211.057 -43.68)" fill="#1a1818"/>
      <path id="Path_8" data-name="Path 8" d="M306,46.191h1.549v2.737h2.707v1.55h-2.707V58.96a3.043,3.043,0,0,0,.887,2.2,2.648,2.648,0,0,0,1.82.9v1.549a4.048,4.048,0,0,1-2.9-1.368A4.467,4.467,0,0,1,306,58.96Z" transform="translate(-235.207 -39.618)" fill="#1a1818"/>
      <path id="Path_9" data-name="Path 9" d="M331.381,52.989h1.684l-7.686,19h4.287V73.55h-6.618l2.722-6.692-5.61-13.868h1.684l4.768,11.777Z" transform="translate(-243.666 -43.68)" fill="#1a1818"/>
      <path id="Path_10" data-name="Path 10" d="M358.786,37.671V35.4a5.545,5.545,0,0,1,1.715-3.911,5.991,5.991,0,0,1,4.362-1.624v3.053a3.1,3.1,0,0,0-2.211.737,2.482,2.482,0,0,0-.812,1.76v2.256h3.023v3.053H361.84v13.13h-3.054V40.724h-1.94V37.671Z" transform="translate(-265.583 -29.865)" fill="#76187e"/>
      <path id="Path_11" data-name="Path 11" d="M389.382,48.844a8.266,8.266,0,0,1,8.272,8.272l-.03.857H384.207a5.092,5.092,0,0,0,1.64,2.993,5.013,5.013,0,0,0,3.534,1.384,5.107,5.107,0,0,0,2.738-.782,5.825,5.825,0,0,0,2.046-2.331l2.8,1.218a9.042,9.042,0,0,1-3.174,3.67,8.284,8.284,0,0,1-12.694-7.009,8.294,8.294,0,0,1,8.288-8.272Zm4.753,6.076a5.577,5.577,0,0,0-1.7-2.031,5.191,5.191,0,0,0-6.106,0,5.363,5.363,0,0,0-1.715,2.031Z" transform="translate(-280.069 -41.203)" fill="#76187e"/>
      <path id="Path_12" data-name="Path 12" d="M436.738,65.4a8.28,8.28,0,0,1,0-16.559,7.1,7.1,0,0,1,5.234,1.789V49.039h3.053V65.192h-3.053V63.613A7.093,7.093,0,0,1,436.738,65.4Zm0-13.507a5.227,5.227,0,0,0,0,10.453,5.044,5.044,0,0,0,3.7-1.534,5.234,5.234,0,0,0-3.7-8.919Z" transform="translate(-308.37 -41.203)" fill="#76187e"/>
      <path id="Path_13" data-name="Path 13" d="M479.8,42.455h3.054v2.738h2.707v3.053h-2.707v7.731a2.254,2.254,0,0,0,.676,1.655,2.722,2.722,0,0,0,2.031.691v3.054a5.7,5.7,0,0,1-4.2-1.579,5.261,5.261,0,0,1-1.564-3.82Z" transform="translate(-339.037 -37.387)" fill="#76187e"/>
      <path id="Path_14" data-name="Path 14" d="M501.281,49.329h3.054V58.97a3.67,3.67,0,0,0,7.339,0V49.329h3.054V65.482h-3.054v-.857A6.616,6.616,0,0,1,508,65.693a6.727,6.727,0,0,1-6.723-6.723Z" transform="translate(-351.871 -41.493)" fill="#76187e"/>
      <path id="Path_15" data-name="Path 15" d="M552.811,48.844V51.9h-.661a3.448,3.448,0,0,0-2.572,1.083,3.5,3.5,0,0,0-1.083,2.587v9.626h-3.054V49.039h3.054v.842a5.594,5.594,0,0,1,3.655-1.037Z" transform="translate(-378.253 -41.203)" fill="#76187e"/>
      <path id="Path_16" data-name="Path 16" d="M576.18,48.844a8.266,8.266,0,0,1,8.272,8.272l-.03.857H571.006a5.093,5.093,0,0,0,1.64,2.993,5.014,5.014,0,0,0,3.534,1.384,5.107,5.107,0,0,0,2.738-.782,5.827,5.827,0,0,0,2.045-2.331l2.8,1.218a9.036,9.036,0,0,1-3.174,3.67,8.283,8.283,0,0,1-12.694-7.009,8.294,8.294,0,0,1,8.287-8.272Zm4.753,6.076a5.578,5.578,0,0,0-1.7-2.031,5.191,5.191,0,0,0-6.106,0,5.367,5.367,0,0,0-1.715,2.031Z" transform="translate(-391.667 -41.203)" fill="#76187e"/>
      <path id="Path_17" data-name="Path 17" d="M622.257,65.4a7.288,7.288,0,0,1-3.655-.963,6.122,6.122,0,0,1-2.738-3.745l2.933-.843a3.2,3.2,0,0,0,1.429,2,4.345,4.345,0,0,0,2.045.5c.09,0,.192,0,.308-.014s.238-.025.369-.045a3.078,3.078,0,0,0,.842-.256,1.841,1.841,0,0,0,1.1-1.61,1.255,1.255,0,0,0-.316-.917,3.015,3.015,0,0,0-2.226-.857q-3.594-.24-5.189-1.835a3.822,3.822,0,0,1-.932-1.49,4.4,4.4,0,0,1-.211-1.368,4.636,4.636,0,0,1,1.865-3.836,6.288,6.288,0,0,1,3.986-1.278,6.074,6.074,0,0,1,4.617,1.97A7.522,7.522,0,0,1,628,53.251l-2.843,1.068-.36-.692a4.236,4.236,0,0,0-.527-.721,3.289,3.289,0,0,0-2.436-1.008q-.286.016-.482.045a3.772,3.772,0,0,0-.947.241,1.828,1.828,0,0,0-1.339,1.775q0,.737,1.038,1.173a8.273,8.273,0,0,0,2.451.466,6.955,6.955,0,0,1,2.768.722,4.955,4.955,0,0,1,1.565,1.2,4.09,4.09,0,0,1,1.037,3.143,4.685,4.685,0,0,1-1.955,3.6,6.058,6.058,0,0,1-3.7,1.143Z" transform="translate(-420.326 -41.203)" fill="#76187e"/>
      <path id="Path_18" data-name="Path 18" d="M656.21,83.546a1.474,1.474,0,0,1-2.948,0,1.4,1.4,0,0,1,.436-1.053,1.454,1.454,0,0,1,2.075,0A1.4,1.4,0,0,1,656.21,83.546Z" transform="translate(-442.668 -61.046)" fill="#1a1818"/>
      <path id="Path_19" data-name="Path 19" d="M672.176,41.04a1.078,1.078,0,0,1-.345-.812,1.1,1.1,0,0,1,.345-.827,1.081,1.081,0,0,1,.813-.346,1.181,1.181,0,0,1,1.173,1.173,1.081,1.081,0,0,1-.346.812,1.1,1.1,0,0,1-.827.347A1.082,1.082,0,0,1,672.176,41.04Zm.046,3.624h1.549v14.68h-1.549Z" transform="translate(-453.761 -35.355)" fill="#1a1818"/>
      <path id="Path_20" data-name="Path 20" d="M692.166,52.542a7.344,7.344,0,0,1,2.932.6,7.516,7.516,0,0,1,4,4,7.35,7.35,0,0,1,.6,2.933v.12H686.255a5.589,5.589,0,0,0,.5,2.256,5.926,5.926,0,0,0,1.279,1.85,5.812,5.812,0,0,0,1.865,1.233,5.677,5.677,0,0,0,2.271.466,5.791,5.791,0,0,0,3.114-.887,5.932,5.932,0,0,0,2.135-2.316l1.474.646a7.4,7.4,0,0,1-2.722,2.993,7.3,7.3,0,0,1-4,1.158,7.471,7.471,0,0,1-2.918-.587,7.437,7.437,0,0,1-4.016-4.016,7.519,7.519,0,0,1,1.61-8.242,7.594,7.594,0,0,1,2.406-1.609A7.31,7.31,0,0,1,692.166,52.542Zm5.73,6.046a5.918,5.918,0,0,0-5.73-4.437,5.7,5.7,0,0,0-3.64,1.263,5.873,5.873,0,0,0-2.091,3.174Z" transform="translate(-461.417 -43.413)" fill="#1a1818"/>
    </g>
  </g>
</svg>
