<svg xmlns="http://www.w3.org/2000/svg" width="65.994" height="66.021" viewBox="0 0 65.994 66.021">
  <g id="_001-call-center" data-name="001-call-center" transform="translate(0.997 1.009)">
    <g id="Group_14" data-name="Group 14">
      <path id="Path_54" data-name="Path 54" d="M56.432,22.615a24.5,24.5,0,0,0-48.863,0,9.718,9.718,0,0,0-4.761,2.6A9.6,9.6,0,0,0,8.051,41.466a1.065,1.065,0,0,0,.484.133,1.279,1.279,0,0,0,.2-.021.63.63,0,0,0,.082-.026c.259.02.516.047.783.047h2.133A1.067,1.067,0,0,0,12.8,40.533V23.468A1.067,1.067,0,0,0,11.735,22.4H9.729a22.37,22.37,0,0,1,44.545,0H52.265A1.067,1.067,0,0,0,51.2,23.468V40.533A1.067,1.067,0,0,0,52.265,41.6H54.4v2.133c0,8.227-6.431,14.481-15.1,14.892a4.258,4.258,0,1,0,.026,2.133c9.868-.43,17.2-7.593,17.2-17.026V41.355a9.753,9.753,0,0,0,4.661-2.566,9.609,9.609,0,0,0-4.76-16.175Zm-45.763,1.92V39.466H9.6a7.918,7.918,0,0,1-.935-.055,7.466,7.466,0,0,1,.022-14.825,7.6,7.6,0,0,1,.913-.051h1.067ZM35.2,61.864a2.133,2.133,0,1,1,2.133-2.133A2.133,2.133,0,0,1,35.2,61.864ZM55.337,39.41a7.8,7.8,0,0,1-.939.057H53.331V24.534H54.4a7.466,7.466,0,0,1,.939,14.875Z" fill="none" stroke="#300d2f" stroke-width="2"/>
    </g>
  </g>
</svg>
