<?xml version="1.0" encoding="UTF-8"?>
<svg width="20px" height="16px" viewBox="0 0 20 16" version="1.1" xmlns="http://www.w3.org/2000/svg" xmlns:xlink="http://www.w3.org/1999/xlink">
    <title>Icon</title>
    <g id="desktop" stroke="none" stroke-width="1" fill="none" fill-rule="evenodd">
        <g id="Cart" transform="translate(-355.000000, -348.000000)" fill="#92278F" stroke="#92278F">
            <g id="01-Components-/-10-Announcements-/-01-Alerts-/-02-Left-Icon-/-04-Alert" transform="translate(337.000000, 337.000000)">
                <g id="Icon" transform="translate(18.000000, 11.000000)">
                    <path d="M17,0.5 C17.6903559,0.5 18.3153559,0.779822031 18.767767,1.23223305 C19.220178,1.68464406 19.5,2.30964406 19.5,3 L19.5,3 L19.5,13 C19.5,13.6903559 19.220178,14.3153559 18.767767,14.767767 C18.3153559,15.220178 17.6903559,15.5 17,15.5 L17,15.5 L3,15.5 C2.30964406,15.5 1.68464406,15.220178 1.23223305,14.767767 C0.779822031,14.3153559 0.5,13.6903559 0.5,13 L0.5,13 L0.5,3 C0.5,2.30964406 0.779822031,1.68464406 1.23223305,1.23223305 C1.68464406,0.779822031 2.30964406,0.5 3,0.5 L3,0.5 Z M18.5,7.5 L1.5,7.5 L1.5,13 C1.5,13.4142136 1.66789322,13.7892136 1.93933983,14.0606602 C2.21078644,14.3321068 2.58578644,14.5 3,14.5 L17,14.5 C17.4142136,14.5 17.7892136,14.3321068 18.0606602,14.0606602 C18.3321068,13.7892136 18.5,13.4142136 18.5,13 L18.5,7.5 Z M17,1.5 L3,1.5 C2.58578644,1.5 2.21078644,1.66789322 1.93933983,1.93933983 C1.66789322,2.21078644 1.5,2.58578644 1.5,3 L1.5,4.5 L18.5,4.5 L18.5,3 C18.5,2.58578644 18.3321068,2.21078644 18.0606602,1.93933983 C17.7892136,1.66789322 17.4142136,1.5 17,1.5 Z" id="Icon-Color"></path>
                </g>
            </g>
        </g>
    </g>
</svg>
