<?xml version="1.0" encoding="UTF-8"?>
<svg width="48px" height="39px" viewBox="0 0 48 39" version="1.1" xmlns="http://www.w3.org/2000/svg" xmlns:xlink="http://www.w3.org/1999/xlink">
    <title>Group 16</title>
    <g id="desktop" stroke="none" stroke-width="1" fill="none" fill-rule="evenodd">
        <g id="Product" transform="translate(-1226.000000, -741.000000)">
            <g id="Group-9" transform="translate(1201.000000, 741.000000)">
                <g id="Group-16" transform="translate(25.000000, 0.000000)">
                    <polygon id="Fill-1" fill="#DAB7D9" points="38 11 42.7313171 11 46 19 38 19"></polygon>
                    <polygon id="Fill-2" fill="#DAB7D9" points="2 31 28 31 28 1 2 1"></polygon>
                    <polygon id="Fill-3" fill="#FFFFFF" points="29 10 29 31 31.8328458 31 37.0437027 31 46 31 46 19.2176211 37.0437027 19.2176211 37.0437027 10"></polygon>
                    <g id="Group-15">
                        <path d="M15.0936,33 C15.0936,35.5365 13.0371,37.5945 10.4991,37.5945 C7.9626,37.5945 5.9061,35.5365 5.9061,33 C5.9061,30.4635 7.9626,28.4055 10.4991,28.4055 C13.0371,28.4055 15.0936,30.4635 15.0936,33" id="Fill-4" fill="#FFFFFF"></path>
                        <path d="M42.0936,33 C42.0936,35.5365 40.0371,37.5945 37.4991,37.5945 C34.9626,37.5945 32.9061,35.5365 32.9061,33 C32.9061,30.4635 34.9626,28.4055 37.4991,28.4055 C40.0371,28.4055 42.0936,30.4635 42.0936,33" id="Fill-6" fill="#FFFFFF"></path>
                        <path d="M44.99985,30 L42.67635,30 C42.65835,29.9685 42.63585,29.9415 42.61785,29.91 C42.51735,29.7465 42.41235,29.589 42.29685,29.433 C42.20835,29.313 42.10935,29.2005 42.01185,29.0865 C41.83935,28.8885 41.65635,28.7025 41.46135,28.5285 C41.32035,28.404 41.17785,28.281 41.02785,28.17 C40.90485,28.08 40.77885,27.996 40.64985,27.915 C40.45485,27.7935 40.25235,27.6855 40.04535,27.588 C39.93135,27.5325 39.82035,27.477 39.70185,27.432 C39.42885,27.3225 39.14535,27.2355 38.85585,27.168 C38.75685,27.1455 38.65635,27.1245 38.55585,27.1065 C38.21085,27.0435 37.85835,27 37.49985,27 C37.14135,27 36.79035,27.0435 36.44535,27.1065 C36.34335,27.1245 36.24435,27.1455 36.14535,27.168 C35.85435,27.2355 35.57235,27.3225 35.29785,27.432 C35.18085,27.477 35.06835,27.5325 34.95435,27.588 C34.74735,27.6855 34.54485,27.7935 34.35135,27.915 C34.22085,27.996 34.09485,28.08 33.97185,28.17 C33.82185,28.281 33.67935,28.404 33.53985,28.5285 C33.34335,28.7025 33.16185,28.8885 32.98935,29.0865 C32.89185,29.2005 32.79285,29.313 32.70285,29.433 C32.58885,29.589 32.48235,29.7465 32.38335,29.91 C32.36385,29.9415 32.34285,29.9685 32.32335,30 L29.99985,30 L29.99985,12 L35.99985,12 L35.99985,19.5 C35.99985,20.328 36.67035,21 37.49985,21 L44.99985,21 L44.99985,30 Z M37.49985,36 C35.84535,36 34.49985,34.6545 34.49985,33 C34.49985,32.6565 34.57035,32.334 34.67535,32.028 C34.67835,32.019 34.68585,32.0115 34.68885,32.0025 C35.00085,31.1265 35.69385,30.468 36.53085,30.174 C36.57735,30.159 36.62235,30.147 36.66585,30.1335 C36.93435,30.0525 37.21335,30 37.49985,30 C37.78785,30 38.06535,30.0525 38.33385,30.132 C38.37885,30.147 38.42385,30.159 38.46885,30.174 C39.30735,30.468 39.99885,31.1265 40.31085,32.0025 C40.31385,32.0115 40.32135,32.019 40.32435,32.028 C40.43085,32.334 40.49985,32.6565 40.49985,33 C40.49985,34.6545 39.15435,36 37.49985,36 L37.49985,36 Z M38.99985,12 L41.07285,12 L44.07285,18 L38.99985,18 L38.99985,12 Z M26.99985,30 L15.67635,30 C15.65835,29.9685 15.63585,29.9415 15.61785,29.91 C15.51735,29.7465 15.41235,29.589 15.29685,29.433 C15.20835,29.313 15.10935,29.2005 15.01185,29.0865 C14.83935,28.8885 14.65635,28.7025 14.46135,28.5285 C14.32035,28.404 14.17785,28.281 14.02785,28.17 C13.90485,28.08 13.77885,27.996 13.64985,27.915 C13.45485,27.7935 13.25235,27.6855 13.04535,27.588 C12.93135,27.5325 12.82035,27.477 12.70185,27.432 C12.42885,27.3225 12.14535,27.2355 11.85585,27.168 C11.75685,27.1455 11.65635,27.1245 11.55585,27.1065 C11.21085,27.0435 10.85835,27 10.49985,27 C10.14135,27 9.79035,27.0435 9.44535,27.1065 C9.34335,27.1245 9.24435,27.1455 9.14535,27.168 C8.85435,27.2355 8.57235,27.3225 8.29785,27.432 C8.18085,27.477 8.06835,27.5325 7.95435,27.588 C7.74735,27.6855 7.54485,27.7935 7.35135,27.915 C7.22085,27.996 7.09485,28.08 6.97185,28.17 C6.82185,28.281 6.67935,28.404 6.53985,28.5285 C6.34335,28.7025 6.16185,28.8885 5.98935,29.0865 C5.89185,29.2005 5.79285,29.313 5.70285,29.433 C5.58885,29.589 5.48235,29.7465 5.38335,29.91 C5.36385,29.9415 5.34285,29.9685 5.32335,30 L2.99985,30 L2.99985,3 L26.99985,3 L26.99985,30 Z M10.49985,36 C8.84535,36 7.49985,34.6545 7.49985,33 C7.49985,32.6565 7.57035,32.334 7.67535,32.028 C7.67835,32.019 7.68585,32.0115 7.68885,32.0025 C8.00085,31.1265 8.69385,30.468 9.53085,30.174 C9.57735,30.159 9.62235,30.147 9.66585,30.1335 C9.93435,30.0525 10.21335,30 10.49985,30 C10.78785,30 11.06535,30.0525 11.33385,30.132 C11.37885,30.147 11.42385,30.159 11.46885,30.174 C12.30735,30.468 12.99885,31.1265 13.31085,32.0025 C13.31385,32.0115 13.32135,32.019 13.32435,32.028 C13.43085,32.334 13.49985,32.6565 13.49985,33 C13.49985,34.6545 12.15435,36 10.49985,36 L10.49985,36 Z M47.84235,18.8295 L43.34235,9.8295 C43.08735,9.321 42.56835,9 41.99985,9 L29.99985,9 L29.99985,1.5 C29.99985,0.672 29.32935,0 28.49985,0 L1.49985,0 C0.67035,0 -0.00015,0.672 -0.00015,1.5 L-0.00015,31.5 C-0.00015,32.328 0.67035,33 1.49985,33 L4.49985,33 C4.49985,36.309 7.19085,39 10.49985,39 C13.80885,39 16.49985,36.309 16.49985,33 L31.49985,33 C31.49985,36.309 34.19085,39 37.49985,39 C40.80885,39 43.49985,36.309 43.49985,33 L46.49985,33 C47.32935,33 47.99985,32.328 47.99985,31.5 L47.99985,19.5 C47.99985,19.2735 47.94135,19.0635 47.85135,18.87 C47.84535,18.858 47.84835,18.843 47.84235,18.8295 Z" id="Fill-8" fill="#0E030E"></path>
                        <path d="M7.49985,15 L22.49985,15 C23.32935,15 23.99985,14.328 23.99985,13.5 C23.99985,12.672 23.32935,12 22.49985,12 L7.49985,12 C6.67035,12 5.99985,12.672 5.99985,13.5 C5.99985,14.328 6.67035,15 7.49985,15" id="Fill-11" fill="#0E030E"></path>
                        <path d="M7.49985,9 L22.49985,9 C23.32935,9 23.99985,8.328 23.99985,7.5 C23.99985,6.672 23.32935,6 22.49985,6 L7.49985,6 C6.67035,6 5.99985,6.672 5.99985,7.5 C5.99985,8.328 6.67035,9 7.49985,9" id="Fill-13" fill="#0E030E"></path>
                    </g>
                </g>
            </g>
        </g>
    </g>
</svg>
