<?xml version="1.0" encoding="UTF-8"?>
<svg width="34px" height="38px" viewBox="0 0 34 38" version="1.1" xmlns="http://www.w3.org/2000/svg" xmlns:xlink="http://www.w3.org/1999/xlink">
    <title>003-gift-box</title>
    <g id="desktop" stroke="none" stroke-width="1" fill="none" fill-rule="evenodd">
        <g id="MENU_desktop-Copy" transform="translate(-962.000000, -725.000000)" fill="#000000" fill-rule="nonzero">
            <g id="Group-6" transform="translate(962.000000, 725.000000)">
                <g id="003-gift-box">
                    <path d="M31.0472519,13.1959102 L27.3085472,11.8401584 C28.6603153,10.7273243 29.2374947,8.96218251 28.8236806,7.2848414 C28.0104296,3.98931144 23.9773992,2.73828216 21.4294065,4.98243097 L18.8480405,7.25589613 L18.3373842,3.84629214 C17.8324639,0.489457585 13.9317348,-1.12553987 11.1875994,0.87465229 C9.81549448,1.87474837 9.08560231,3.598773 9.40927872,5.34929367 L5.8843718,4.07110038 C4.15015156,3.44209746 2.22530119,4.33628355 1.59396457,6.06431598 L0.0675825824,10.2426024 C-0.143160933,10.8195038 0.155411004,11.4574872 0.734527332,11.6673775 C0.969406903,11.7525062 17.9234211,17.9004809 18.17238,17.9907308 C17.4667729,17.9907308 2.01440868,17.9907308 1.33457647,17.9907308 C0.718362135,17.9907308 0.218805395,18.4884409 0.218805395,19.1023775 L0.218805395,34.6651342 C0.218805395,36.503975 1.72038088,38 3.56604414,38 L12.4920638,38 L16.9550736,38 L25.8810932,38 C27.7267565,38 29.228332,36.503975 29.228332,34.6651342 L29.228332,21.9999471 L30.0914939,22.3130013 C30.667854,22.5221494 31.3098432,22.2278725 31.5215552,21.6485961 L33.0480116,17.4703097 C33.6791248,15.7422773 32.7816956,13.8248389 31.0472519,13.1959102 Z M11.3762182,35.7767808 L3.56596964,35.7767808 C2.95072373,35.7767808 2.45019856,35.2781059 2.45019856,34.6651342 L2.45019856,20.2140241 L11.3762182,20.2140241 L11.3762182,35.7767808 Z M15.839228,35.7767808 L13.6077604,35.7767808 L13.6077604,20.2140241 L15.839228,20.2140241 L15.839228,35.7767808 Z M22.9072929,6.64819397 C24.2016261,5.50812155 26.2449964,6.14766351 26.6566502,7.81572728 C27.0956434,9.59422838 25.3702134,11.1363431 23.6432936,10.5111254 C22.174421,9.97845825 21.4860964,9.72886099 20.0152125,9.19545167 L22.9072929,6.64819397 Z M12.5051002,2.6691104 C13.8996278,1.65276044 15.8749851,2.47747789 16.130574,4.1759713 L16.7026879,7.99414888 C16.2908851,7.84482099 13.4799287,6.82542806 13.0749048,6.67862361 C11.347836,6.05199569 11.0216268,3.75017901 12.5051002,2.6691104 Z M13.0307299,13.7603429 L2.54614683,9.958345 L3.69097057,6.82468588 C3.90141611,6.24867507 4.5430329,5.95076147 5.12110631,6.16028067 C6.29438676,6.58570188 14.1952945,9.45076377 14.5571119,9.58198231 L13.0307299,13.7603429 Z M17.2245929,15.2812311 L15.1276614,14.520787 L16.6541178,10.3425006 L18.7510494,11.1029448 L17.2245929,15.2812311 Z M26.9967898,34.6651342 C26.9967898,35.2781059 26.4961902,35.7767808 25.8809442,35.7767808 L18.0707702,35.7767808 L18.0707702,20.2140241 L24.3033849,20.2140241 L26.9967898,21.1907413 L26.9967898,34.6651342 L26.9967898,34.6651342 Z M30.9508567,16.7097914 L29.8061074,19.8435247 L19.3215244,16.0415268 L20.8479809,11.8632404 L30.2840609,15.2849421 C30.8622088,15.4946097 31.1613022,16.1338548 30.9508567,16.7097914 Z" id="Shape"></path>
                </g>
            </g>
        </g>
    </g>
</svg>
