<?xml version="1.0" encoding="UTF-8"?>
<svg width="40px" height="40px" viewBox="0 0 40 40" version="1.1" xmlns="http://www.w3.org/2000/svg" xmlns:xlink="http://www.w3.org/1999/xlink">
    <title>Group 16</title>
    <g id="desktop" stroke="none" stroke-width="1" fill="none" fill-rule="evenodd">
        <g id="Product" transform="translate(-1388.000000, -736.000000)">
            <g id="Group-10" transform="translate(1365.000000, 736.000000)">
                <g id="Group-16" transform="translate(23.000000, 0.000000)">
                    <path d="M5,27.264375 L5,18.749375 L5,11.249375 C5,10.730625 5.48,9.854375 5.9575,10.059375 L19.56125,16.409375 C19.8275,16.523125 20,16.785625 20,17.075625 L20,34.275625 C20,34.794375 19.46875,35.145625 18.99125,34.940625 L5.3875,28.590625 C5.1225,28.476875 5,27.553125 5,27.264375" id="Fill-1" fill="#FFFFFF"></path>
                    <polygon id="Fill-3" fill="#DAB7D9" points="21.25 16.171875 38.39875 8.554375 38.39875 28.554375 21.25 36.015625"></polygon>
                    <polygon id="Fill-5" fill="#DAB7D9" points="4.18025 8.867125 13.20275 4.843375 28.51525 12.383375 20.509 16.093375"></polygon>
                    <polygon id="Fill-7" fill="#DAB7D9" points="13.633375 4.57025 22.098375 0.79525 37.968375 8.0865 29.960875 11.7965"></polygon>
                    <path d="M37.5,27.926 L22.5,34.35475 L22.5,17.0735 L37.5,10.646 L37.5,27.926 Z M6.9225,8.74975 L12.5,6.35975 L26.8275,12.49975 L21.25,14.891 L6.9225,8.74975 Z M30,11.141 L15.6725,4.99975 L21.25,2.60975 L35.5775,8.74975 L30,11.141 Z M40,8.756 L40,8.74975 C40,8.606 39.9675,8.4685 39.92,8.33475 C39.90875,8.306 39.89875,8.27725 39.88625,8.2485 C39.82875,8.1185 39.755,7.9985 39.65875,7.89475 C39.6475,7.8835 39.6325,7.87475 39.6225,7.8635 C39.565,7.80725 39.50625,7.751 39.43875,7.706 C39.39,7.67475 39.33625,7.65475 39.28375,7.631 C39.26875,7.6235 39.2575,7.6085 39.2425,7.601 L21.7425,0.10225 C21.73875,0.101 21.735,0.101 21.7325,0.09975 C21.60875,0.0485 21.4775,0.0285 21.34375,0.0185 C21.31375,0.01475 21.2825,-0.00025 21.2525,-0.00025 C21.195,-0.00025 21.13875,0.02475 21.08,0.0335 C20.97375,0.04725 20.8675,0.0585 20.77,0.09975 C20.76625,0.101 20.76125,0.09975 20.7575,0.10225 L12.0375,3.8385 L12.03625,3.8385 L3.2575,7.601 C3.24375,7.60725 3.23375,7.621 3.22,7.6285 C3.16625,7.6535 3.11125,7.6735 3.06125,7.706 C2.99375,7.751 2.935,7.80725 2.8775,7.8635 C2.86625,7.87475 2.85375,7.8835 2.8425,7.89475 C2.745,7.9985 2.67125,8.1185 2.61375,8.2485 C2.60125,8.27725 2.59125,8.306 2.58,8.33475 C2.5325,8.4685 2.5,8.606 2.5,8.74975 L2.5,8.756 L2.5,8.75725 L2.5,19.99975 C2.5,20.691 3.05875,21.24975 3.75,21.24975 C4.44125,21.24975 5,20.691 5,19.99975 L5,10.646 L20,17.0735 L20,36.24975 C20,36.401 20.03625,36.546 20.0875,36.6835 C20.09875,36.7135 20.10875,36.7435 20.1225,36.77225 C20.18,36.8985 20.25625,37.01475 20.3525,37.116 C20.37,37.13225 20.39125,37.14725 20.41,37.16475 C20.45875,37.20975 20.505,37.25725 20.56125,37.2935 C20.6025,37.321 20.65125,37.3335 20.695,37.356 C20.735,37.37725 20.77375,37.39725 20.8175,37.4135 C20.9575,37.46475 21.1025,37.49975 21.25,37.49975 C21.425,37.49975 21.59,37.4635 21.7425,37.3985 L39.2425,29.8985 C39.7025,29.70225 40,29.251 40,28.74975 L40,8.75725 L40,8.756 Z" id="Fill-9" fill="#0E030E"></path>
                    <path d="M30.25025,27.70875 C30.4115,27.70875 30.574,27.67875 30.7315,27.6125 L34.2315,26.15375 L34.23275,26.15375 C34.38525,26.08875 34.52275,25.99625 34.63775,25.87875 C34.69275,25.82375 34.7215,25.75375 34.76525,25.69 C34.8115,25.61875 34.87025,25.55875 34.904,25.48125 C34.96525,25.33 34.999,25.1675 34.999,25.0025 L35.00025,25 L35.00025,21.25 C35.00025,20.55875 34.4415,20 33.75025,20 C33.059,20 32.50025,20.55875 32.50025,21.25 L32.50025,24.1675 L29.769,25.305 C29.1315,25.57 28.83025,26.3025 29.0965,26.94 C29.2965,27.42 29.76025,27.70875 30.25025,27.70875" id="Fill-12" fill="#0E030E"></path>
                    <path d="M10,27.50125 L5,27.50125 L7,26.00125 C7.5525,25.5875 7.665,24.80375 7.25,24.25125 C6.835,23.6975 6.05125,23.585 5.5,24.00125 L0.5,27.75125 C0.4775,27.76875 0.46625,27.795 0.44375,27.81375 C0.39625,27.855 0.35375,27.8975 0.3125,27.945 C0.29375,27.9675 0.2675,27.97875 0.25,28.00125 C0.235,28.02125 0.23375,28.04625 0.22,28.065 C0.19125,28.10875 0.16625,28.15125 0.14375,28.1975 C0.11625,28.25 0.0975,28.30375 0.07875,28.36 C0.06125,28.4125 0.04375,28.4625 0.0325,28.515 C0.02375,28.56625 0.02125,28.615 0.0175,28.6675 C0.015,28.69625 0,28.72125 0,28.75125 C0,28.78 0.015,28.80625 0.0175,28.835 C0.02125,28.88625 0.02375,28.93625 0.0325,28.9875 C0.04375,29.04 0.06125,29.09 0.07875,29.14125 C0.0975,29.1975 0.11625,29.25125 0.14375,29.305 C0.16625,29.35 0.19125,29.39375 0.22,29.43625 C0.23375,29.45625 0.235,29.48125 0.25,29.50125 C0.265,29.52125 0.29,29.5275 0.3075,29.5475 C0.35,29.59875 0.39375,29.645 0.44375,29.6875 C0.46625,29.7075 0.4775,29.7325 0.5,29.75125 L5.5,33.5 C5.725,33.66875 5.9875,33.75 6.24875,33.75 C6.63,33.75 7.005,33.5775 7.25,33.25 C7.665,32.6975 7.5525,31.91375 7,31.50125 L5,30.00125 L10,30.00125 C12.0675,30.00125 13.75,31.68375 13.75,33.75 C13.75,35.8175 12.0675,37.5 10,37.5 L1.25,37.5 C0.55875,37.5 0,38.05875 0,38.75 C0,39.44125 0.55875,40 1.25,40 L10,40 C13.44625,40 16.25,37.19625 16.25,33.75 C16.25,30.305 13.44625,27.50125 10,27.50125" id="Fill-14" fill="#0E030E"></path>
                </g>
            </g>
        </g>
    </g>
</svg>
