<svg xmlns="http://www.w3.org/2000/svg" width="56.25" height="64" viewBox="0 0 56.25 64">
  <g id="_002-star" data-name="002-star" transform="translate(-3.875)">
    <path id="Path_55" data-name="Path 55" d="M32,0a28.2,28.2,0,0,0-6.519,55.611l4.952,7.543a1.875,1.875,0,0,0,3.135,0l4.952-7.543A28.2,28.2,0,0,0,32,0Zm4.987,52.111a1.875,1.875,0,0,0-1.186.807L32,58.708l-3.8-5.791a1.875,1.875,0,0,0-1.186-.807,24.375,24.375,0,1,1,9.975,0Z" fill="#300d2f"/>
    <path id="Path_56" data-name="Path 56" d="M51.616,21.876a1.875,1.875,0,0,0-1.362-1.248L39.365,18.122l-5.752-9.7a1.875,1.875,0,0,0-3.226,0l-5.752,9.7L13.747,20.629a1.875,1.875,0,0,0-.994,3.058l7.339,8.432-.981,11.135a1.875,1.875,0,0,0,2.6,1.89L32,40.77l10.287,4.374a1.875,1.875,0,0,0,2.6-1.89l-.981-11.135,7.339-8.432a1.875,1.875,0,0,0,.369-1.81Zm-11.06,8.382a1.875,1.875,0,0,0-.453,1.4l.777,8.817-8.145-3.463a1.874,1.874,0,0,0-1.467,0l-8.145,3.463.777-8.817a1.875,1.875,0,0,0-.454-1.4l-5.811-6.676L26.259,21.6a1.875,1.875,0,0,0,1.192-.871L32,13.052l4.549,7.673a1.876,1.876,0,0,0,1.192.871l8.626,1.986Z" fill="#300d2f"/>
  </g>
</svg>
