<?xml version="1.0" encoding="UTF-8"?>
<svg width="40px" height="40px" viewBox="0 0 40 40" version="1.1" xmlns="http://www.w3.org/2000/svg" xmlns:xlink="http://www.w3.org/1999/xlink">
    <title>Group 2</title>
    <g id="desktop" stroke="none" stroke-width="1" fill="none" fill-rule="evenodd">
        <g id="Product" transform="translate(-1065.000000, -740.000000)">
            <g id="Group-7" transform="translate(1035.000000, 740.000000)">
                <g id="Group-2" transform="translate(30.000000, 0.000000)">
                    <path d="M4.8,27.5178 L4.8,19.0614597 L4.8,11.6131271 C4.8,11.0979508 5.2864,10.2277373 5.77026667,10.4300836 L19.5554,16.7375799 C19.8252,16.8505463 20,17.1099966 20,17.3979988 L20,34.4807495 C20,34.9959259 19.4616667,35.3447561 18.9778,35.1411683 L5.19266667,28.8349134 C4.92286667,28.7219471 4.8,27.8045608 4.8,27.5178" id="Fill-1" fill="#FFFFFF"></path>
                    <polygon id="Fill-3" fill="#0E030E" points="8.4 20.8001253 16 23.6193512 13.9156436 34.1262568 8.37742574 39.2001253 3.04739274 34.0745956 0.8 23.311844"></polygon>
                    <polygon id="Fill-5" fill="#73D7FF" points="21.6 16.345157 38.4 8.80012533 38.4 28.6098572 21.6 36.0001253"></polygon>
                    <polygon id="Fill-7" fill="#DAB7D9" points="4 8.805992 12.8990703 4.80012533 28 12.3066142 20.1031383 16.0001253"></polygon>
                    <polygon id="Fill-9" fill="#DAB7D9" points="13.6 4.60551592 21.8235349 0.800125333 37.6 8.2036886 29.7031383 12.0001253"></polygon>
                    <path d="M16.8711058,21.2182905 C16.4989884,20.9108082 16.0112129,20.7748552 15.5510947,20.8498199 C12.726271,21.275467 11.0328854,19.7888788 10.120192,18.985867 L9.93916196,18.8270435 C9.27789927,18.2565494 8.31617693,18.2590906 7.66120001,18.8270435 L7.44245532,19.0201729 C6.55364787,19.8104788 4.90551977,21.2780081 2.04675295,20.8498199 C1.58537765,20.772314 1.09885929,20.9146199 0.72548473,21.2208317 C0.31816703,21.556267 0.0692506584,22.0594199 0.0403361303,22.6019611 C-0.139436805,25.9639374 -0.075321982,37.1514666 8.25709072,39.9124547 C8.4356065,39.9709018 8.61663659,40.0001253 8.80018098,40.0001253 C8.98246822,40.0001253 9.16349831,39.9709018 9.33949979,39.9124547 C17.6756839,37.1514666 17.7385416,25.9626669 17.5600258,22.6006905 C17.5298542,22.0568787 17.2796806,21.5537258 16.8711058,21.2182905" id="Path" fill="#0E030E"></path>
                    <path d="M8.79892383,37.4132077 C2.81487367,35.206196 2.45784211,26.5141021 2.52447124,23.4532552 C5.70632648,23.6565493 7.73914352,22.1102434 8.80269529,21.1916081 C9.89139013,22.1229493 11.9443216,23.6540081 15.0758907,23.4545257 C15.1412627,26.5153727 14.782974,35.2049255 8.79892383,37.4132077" id="Path" fill="#DAB7D9"></path>
                    <path d="M37.493584,28.00072 L22.453584,34.4466133 L22.453584,17.11928 L37.493584,10.67464 L37.493584,28.00072 Z M6.834544,8.77333333 L12.4269173,6.37570667 L26.792624,12.5333333 L21.2002507,14.9297067 L6.834544,8.77333333 Z M29.973584,11.1697067 L15.6078773,5.01333333 L21.2002507,2.61570667 L35.5659573,8.77333333 L29.973584,11.1697067 Z M40.0002507,8.7796 L40.0002507,8.77333333 C40.0002507,8.62794667 39.967664,8.49008 39.9200373,8.35722667 C39.9087573,8.32714667 39.8974773,8.29832 39.8861973,8.26949333 C39.828544,8.1404 39.7545973,8.02008 39.6568373,7.91605333 C39.6455573,7.90352 39.633024,7.896 39.621744,7.88472 C39.5640907,7.82706667 39.505184,7.77192 39.437504,7.7268 C39.388624,7.69421333 39.3334773,7.67416 39.2808373,7.65034667 C39.2657973,7.64282667 39.2557707,7.62778667 39.2407307,7.62152 L21.694064,0.10152 C21.6890507,0.0990133333 21.6840373,0.100266667 21.6802773,0.09776 C21.566224,0.0501333333 21.442144,0.0350933333 21.318064,0.02256 C21.2792107,0.0188 21.2416107,-4.61852778e-14 21.2027573,-4.61852778e-14 C21.1388373,-4.61852778e-14 21.077424,0.02632 21.013504,0.0350933333 C20.9132373,0.0513866667 20.8129707,0.06016 20.720224,0.09776 C20.716464,0.100266667 20.7114507,0.0990133333 20.7064373,0.10152 L11.966944,3.84773333 C11.9644373,3.84773333 11.9619307,3.84898667 11.9581707,3.85024 L3.15977067,7.62152 C3.14473067,7.62778667 3.13595733,7.64157333 3.12091733,7.64909333 C3.06827733,7.67290667 3.01313067,7.69421333 2.96299733,7.7268 C2.89531733,7.77192 2.83641067,7.82706667 2.77875733,7.88472 C2.76747733,7.896 2.754944,7.90352 2.743664,7.91605333 C2.645904,8.02008 2.57195733,8.1404 2.514304,8.26949333 C2.50177067,8.29832 2.491744,8.32714667 2.480464,8.35722667 C2.43283733,8.49008 2.40025067,8.62794667 2.40025067,8.77333333 L2.40025067,8.7796 L2.40025067,8.78085333 L2.40025067,16.2933333 C2.40025067,16.9864267 2.96049067,17.5466667 3.653584,17.5466667 C4.34667733,17.5466667 4.90691733,16.9864267 4.90691733,16.2933333 L4.90691733,10.67464 L19.9469173,17.11928 L19.9469173,36.3466667 C19.9469173,36.49832 19.983264,36.6437067 20.0346507,36.7815733 C20.0459307,36.8116533 20.0559573,36.8417333 20.069744,36.87056 C20.1273973,36.9971467 20.2038507,37.1137067 20.3003573,37.2139733 C20.317904,37.23152 20.3392107,37.2453067 20.3580107,37.2628533 C20.4068907,37.3079733 20.453264,37.3556 20.509664,37.3932 C20.551024,37.4207733 20.599904,37.4333067 20.6437707,37.4558667 C20.6838773,37.47592 20.7227307,37.4959733 20.7665973,37.5122667 C20.9069707,37.5649067 21.0523573,37.6 21.2002507,37.6 C21.374464,37.6 21.5411573,37.5636533 21.6928107,37.49848 L21.694064,37.49848 L39.2407307,29.97848 C39.7019573,29.7817067 40.0002507,29.3292533 40.0002507,28.8266667 L40.0002507,8.78085333 L40.0002507,8.7796 Z" id="Fill-13" fill="#0E030E"></path>
                    <polygon id="Fill-16" fill="#DAB7D9" points="37.6 27.8924014 37.6 10.4001253 22.4 16.9065839 22.4 34.4001253"></polygon>
                    <path d="M30.1338891,28.0001253 C30.3058702,28.0001253 30.4791845,27.9689919 30.6471661,27.9002388 L34.3800899,26.3863747 L34.3814231,26.3850775 C34.544072,26.3189189 34.6893893,26.2216269 34.8133757,26.1009847 C34.872036,26.0439068 34.9040325,25.971262 34.9493608,25.9038062 C35.0000219,25.8311615 35.0613485,25.7675974 35.0960114,25.6871693 C35.1626708,25.531502 35.1986668,25.3628625 35.1986668,25.1903313 L35.2,25.189034 L35.2,21.2973525 C35.2,20.5799859 34.6040654,20.0001253 33.8668129,20.0001253 C33.1295605,20.0001253 32.5336258,20.5799859 32.5336258,21.2973525 L32.5336258,24.3237835 L29.620612,25.5055575 C28.9406866,25.7805696 28.6193885,26.5407448 28.9033574,27.2023306 C29.1166673,27.7004659 29.6112797,28.0001253 30.1338891,28.0001253" id="Fill-18" fill="#0E030E"></path>
                </g>
            </g>
        </g>
    </g>
</svg>
